<?xml version="1.0" encoding="utf-8"?>
<!-- Generator: Adobe Illustrator 16.0.0, SVG Export Plug-In . SVG Version: 6.00 Build 0)  -->
<!DOCTYPE svg PUBLIC "-//W3C//DTD SVG 1.1//EN" "http://www.w3.org/Graphics/SVG/1.1/DTD/svg11.dtd">
<svg version="1.1" id="Layer_1" xmlns="http://www.w3.org/2000/svg" xmlns:xlink="http://www.w3.org/1999/xlink" x="0px" y="0px"
	 width="200px" height="100px" viewBox="0 0 200 100" enable-background="new 0 0 200 100" xml:space="preserve">
<g>
	<path fill="#3D7136" stroke="#000000" stroke-width="2" stroke-miterlimit="10" d="M38.393,14.64c-0.639-0.527-1.566-0.266-1.869,0
		L2.005,48.84c-0.429,1.467,1.375,4.686,4.219,3.246l30.3-30.724c0.303-0.265,1.23-0.527,1.869,0l30.118,31.086
		c1.715,0.962,4.948-1.882,3.896-3.829l-10.27-10.26L38.393,14.64z"/>
	<path fill="#3D7136" stroke="#000000" stroke-width="2" stroke-miterlimit="10" d="M62.137,38.359l-0.052-9.958
		c1.167,0,1.146-1.317,1.146-1.317s0.211-3.046-0.573-3.201l-15.273-0.261L62.137,38.359z"/>
	<path fill="#3D7136" stroke="#000000" stroke-width="2" stroke-miterlimit="10" d="M38.393,24.975
		c-0.639-0.527-1.566-0.266-1.869,0L11.132,50.139v7.498v21.97c0,0.7,0.277,1.063,0.993,1.052h7.713h8.472v-21.97
		c0-0.702,0.277-1.063,0.993-1.051h8.356h7.713c0.715-0.012,0.993,0.349,0.993,1.051v21.97h7.888h7.713
		c0.715,0.011,0.993-0.352,0.993-1.052v-21.97v-7.419L38.393,24.975z"/>
</g>
<text transform="matrix(1 0 0 1 79.0264 44.9922)" fill="#4BA547" stroke="#243D1B" stroke-width="2" stroke-miterlimit="10" font-family="'TrajanPro-Regular'" font-size="16.0419">Inver$iones </text>
<text transform="matrix(1 0 0 1 72.6123 72.4961)" fill="#1A50A3" stroke="#000000" stroke-width="3" stroke-miterlimit="10" font-family="'TrajanPro-Regular'" font-size="27.1684">Méndez</text>
<line stroke="#000000" stroke-width="2" stroke-miterlimit="10" x1="28.311" y1="80.658" x2="206.896" y2="80.658"/>
</svg>
